<mxfile host="app.diagrams.net" modified="2024-06-27T12:47:51.574Z" agent="Mozilla/5.0 (X11; Linux x86_64) AppleWebKit/537.36 (KHTML, like Gecko) Chrome/125.0.0.0 Safari/537.36" version="24.5.4" etag="VTq7Vwr91Pz83wfbsYwo" type="github">
  <diagram name="Page-1" id="zLKxbubKldm8-ylz6tRq">
    <mxGraphModel>
      <root>
        <mxCell id="0" />
        <mxCell id="1" parent="0" />
      </root>
    </mxGraphModel>
  </diagram>
</mxfile>
